<?xml version="1.0" encoding="UTF-8" standalone="no"?>
<!-- Created with Inkscape (http://www.inkscape.org/) -->

<svg
   xmlns:dc="http://purl.org/dc/elements/1.1/"
   xmlns:cc="http://creativecommons.org/ns#"
   xmlns:rdf="http://www.w3.org/1999/02/22-rdf-syntax-ns#"
   xmlns:svg="http://www.w3.org/2000/svg"
   xmlns="http://www.w3.org/2000/svg"
   xmlns:sodipodi="http://sodipodi.sourceforge.net/DTD/sodipodi-0.dtd"
   xmlns:inkscape="http://www.inkscape.org/namespaces/inkscape"
   width="64px"
   height="64px"
   id="svg2985"
   version="1.1"
   inkscape:version="0.48.3.1 r9886"
   sodipodi:docname="graphiticon.svg"
   inkscape:export-filename="/home/albert/programming/graphit/images/graphiticon.png"
   inkscape:export-xdpi="90"
   inkscape:export-ydpi="90">
  <defs
     id="defs2987">
    <marker
       inkscape:stockid="Arrow2Send"
       orient="auto"
       refY="0.0"
       refX="0.0"
       id="Arrow2Send"
       style="overflow:visible;">
      <path
         id="path3802"
         style="fill-rule:evenodd;stroke-width:0.62500000;stroke-linejoin:round;"
         d="M 8.7185878,4.0337352 L -2.2072895,0.016013256 L 8.7185884,-4.0017078 C 6.9730900,-1.6296469 6.9831476,1.6157441 8.7185878,4.0337352 z "
         transform="scale(0.3) rotate(180) translate(-2.3,0)" />
    </marker>
    <marker
       inkscape:stockid="Arrow2Mend"
       orient="auto"
       refY="0.0"
       refX="0.0"
       id="Arrow2Mend"
       style="overflow:visible;">
      <path
         id="path3796"
         style="fill-rule:evenodd;stroke-width:0.62500000;stroke-linejoin:round;"
         d="M 8.7185878,4.0337352 L -2.2072895,0.016013256 L 8.7185884,-4.0017078 C 6.9730900,-1.6296469 6.9831476,1.6157441 8.7185878,4.0337352 z "
         transform="scale(0.6) rotate(180) translate(0,0)" />
    </marker>
    <marker
       inkscape:stockid="Arrow2Lend"
       orient="auto"
       refY="0.0"
       refX="0.0"
       id="Arrow2Lend"
       style="overflow:visible;">
      <path
         id="path3790"
         style="fill-rule:evenodd;stroke-width:0.62500000;stroke-linejoin:round;"
         d="M 8.7185878,4.0337352 L -2.2072895,0.016013256 L 8.7185884,-4.0017078 C 6.9730900,-1.6296469 6.9831476,1.6157441 8.7185878,4.0337352 z "
         transform="scale(1.1) rotate(180) translate(1,0)" />
    </marker>
    <marker
       inkscape:stockid="Arrow2Send"
       orient="auto"
       refY="0"
       refX="0"
       id="Arrow2Send-9"
       style="overflow:visible">
      <path
         inkscape:connector-curvature="0"
         id="path3802-2"
         style="fill-rule:evenodd;stroke-width:0.625;stroke-linejoin:round"
         d="M 8.7185878,4.0337352 -2.2072895,0.01601326 8.7185884,-4.0017078 c -1.7454984,2.3720609 -1.7354408,5.6174519 -6e-7,8.035443 z"
         transform="matrix(-0.3,0,0,-0.3,0.69,0)" />
    </marker>
    <filter
       inkscape:collect="always"
       id="filter5728"
       x="-0.27665642"
       width="1.5533128"
       y="-0.24080696"
       height="1.4816139">
      <feGaussianBlur
         inkscape:collect="always"
         stdDeviation="3.0662753"
         id="feGaussianBlur5730" />
    </filter>
    <filter
       inkscape:collect="always"
       id="filter5793">
      <feGaussianBlur
         inkscape:collect="always"
         stdDeviation="0.86349769"
         id="feGaussianBlur5795" />
    </filter>
  </defs>
  <sodipodi:namedview
     id="base"
     pagecolor="#c0c0c0"
     bordercolor="#666666"
     borderopacity="1.0"
     inkscape:pageopacity="0"
     inkscape:pageshadow="2"
     inkscape:zoom="5.5"
     inkscape:cx="16.270707"
     inkscape:cy="40.029091"
     inkscape:current-layer="layer1"
     showgrid="true"
     inkscape:document-units="px"
     inkscape:grid-bbox="true"
     inkscape:window-width="1600"
     inkscape:window-height="841"
     inkscape:window-x="0"
     inkscape:window-y="27"
     inkscape:window-maximized="1">
    <inkscape:grid
       type="xygrid"
       id="grid2995"
       empspacing="5"
       visible="true"
       enabled="true"
       snapvisiblegridlinesonly="true" />
  </sodipodi:namedview>
  <metadata
     id="metadata2990">
    <rdf:RDF>
      <cc:Work
         rdf:about="">
        <dc:format>image/svg+xml</dc:format>
        <dc:type
           rdf:resource="http://purl.org/dc/dcmitype/StillImage" />
        <dc:title></dc:title>
      </cc:Work>
    </rdf:RDF>
  </metadata>
  <g
     id="layer1"
     inkscape:label="Layer 1"
     inkscape:groupmode="layer">
    <path
       style="color:#000000;fill:#ffffff;fill-opacity:1;fill-rule:nonzero;stroke:none;stroke-width:0;marker:none;visibility:visible;display:inline;overflow:visible;enable-background:accumulate"
       d="m 25,4 20,0 c 8.31,0 15,6.69 15,15 l 0,20 c 0,8.31 0,5 0,15 l -35,0 c -8.31,0 -10,0 -15,0 L 10,4 c 5,0 6.69,0 15,0 z"
       id="rect5755"
       inkscape:connector-curvature="0"
       sodipodi:nodetypes="sssscsccs" />
    <path
       style="fill:none;stroke:#000000;stroke-width:2;stroke-linecap:butt;stroke-linejoin:miter;stroke-miterlimit:4;stroke-opacity:1;stroke-dasharray:none;marker-end:url(#Arrow2Send)"
       d="m 3,54 57,0"
       id="path2993"
       inkscape:connector-curvature="0"
       sodipodi:nodetypes="cc" />
    <path
       style="fill:none;stroke:#000000;stroke-width:2;stroke-linecap:butt;stroke-linejoin:miter;stroke-miterlimit:4;stroke-opacity:1;stroke-dasharray:none;marker-end:url(#Arrow2Send)"
       d="M 10,59 10,4"
       id="path2993-0"
       inkscape:connector-curvature="0"
       sodipodi:nodetypes="cc" />
    <path
       style="fill:none;stroke:#0000ff;stroke-width:2;stroke-miterlimit:4;stroke-dasharray:none"
       inkscape:connector-curvature="0"
       d="m 107.13568,3.30188 0.42714,0.97416 0.42713,0.96437 0.42714,0.95458 0.42713,0.94479 0.42714,0.93501 0.42713,0.92521 0.42714,0.91542 0.42714,0.90563 0.42713,0.89583 0.42714,0.88605 0.42713,0.87626 0.42714,0.86647 0.42713,0.85667 0.42714,0.84689 0.42714,0.83709 0.42713,0.82731 0.42714,0.81751 0.42713,0.80772 0.42714,0.79794 0.42713,0.78814 0.42714,0.77835 0.42713,0.76856 0.42714,0.75877 0.42714,0.74898 0.42713,0.73919 0.42714,0.7294 0.42713,0.71961 0.42714,0.70981 0.42713,0.70003 0.42714,0.69024 0.42714,0.68044 0.42713,0.67066 0.42714,0.66086 0.42713,0.65108 0.42714,0.64128 0.42713,0.63149 0.42714,0.62171 0.42714,0.61191 0.42713,0.60212 0.42714,0.59233 0.42713,0.58254 0.42714,0.57275 0.42713,0.56296 0.42714,0.55316 0.42714,0.54338 0.42713,0.53359 0.42714,0.52379 0.42713,0.51401 0.42714,0.50421 0.42713,0.49443 0.42714,0.48463 0.42714,0.47485 0.42713,0.46505 0.42714,0.45526 0.42713,0.44547 0.42714,0.43568 0.42713,0.42589 0.42714,0.4161 0.42714,0.40631 0.42713,0.39652 0.42714,0.38673 0.42713,0.37694 0.42714,0.36714 0.42713,0.35736 0.42714,0.34757 0.42713,0.33777 0.42714,0.32799 0.42714,0.31819 0.42713,0.3084 0.42714,0.29862 0.42713,0.28882 0.42714,0.27903 0.42713,0.26924 0.42714,0.25945 0.42714,0.24966 0.42713,0.23987 0.42714,0.23008 0.42713,0.22029 0.42714,0.2105 0.42713,0.2007 0.42714,0.19092 0.42714,0.18113 0.42713,0.17133 0.42714,0.16155 0.42713,0.15175 0.42714,0.14196 0.42713,0.13218 0.42714,0.12238 0.42714,0.11259 0.42713,0.1028 0.42714,0.093 0.42713,0.0832 0.42714,0.0734 0.42713,0.0636 0.42714,0.0538 0.42714,0.0441 0.42713,0.0343 0.42714,0.0245 0.42713,0.0147 0.42714,0.005 0.42713,-0.005 0.42714,-0.0147 0.42713,-0.0245 0.42714,-0.0343 0.42714,-0.0441 0.42713,-0.0538 0.42714,-0.0636 0.42713,-0.0734 0.42714,-0.0832 0.42713,-0.093 0.42714,-0.1028 0.42714,-0.11259 0.42713,-0.12238 0.42714,-0.13218 0.42713,-0.14196 0.42714,-0.15175 0.42713,-0.16155 0.42714,-0.17133 0.42714,-0.18113 0.42713,-0.19092 0.42714,-0.2007 0.42713,-0.2105 0.42714,-0.22029 0.42713,-0.23008 0.42714,-0.23987 0.42714,-0.24966 0.42713,-0.25945 0.42714,-0.26924 0.42713,-0.27903 0.42714,-0.28882 0.42713,-0.29862 0.42714,-0.3084 0.42714,-0.31819 0.42713,-0.32799 0.42714,-0.33777 0.42713,-0.34757 0.42714,-0.35736 0.42713,-0.36714 0.42714,-0.37694 0.42713,-0.38673 0.42714,-0.39652 0.42714,-0.40631 0.42713,-0.4161 0.42714,-0.42589 0.42713,-0.43568 0.42714,-0.44547 0.42713,-0.45526 0.42714,-0.46505 0.42714,-0.47485 0.42713,-0.48463 0.42714,-0.49443 0.42713,-0.50421 0.42714,-0.51401 0.42713,-0.52379 0.42714,-0.53359 0.42714,-0.54338 0.42713,-0.55316 0.42714,-0.56296 0.42713,-0.57275 0.42714,-0.58254 0.42713,-0.59233 0.42714,-0.60212 0.42714,-0.61191 0.42713,-0.62171 0.42714,-0.63149 0.42713,-0.64128 0.42714,-0.65108 0.42713,-0.66086 0.42714,-0.67066 0.42714,-0.68044 0.42713,-0.69024 0.42714,-0.70003 0.42713,-0.70981 0.42714,-0.71961 0.42713,-0.7294 0.42714,-0.73919 0.42714,-0.74898 0.42713,-0.75877 0.42714,-0.76856 0.42713,-0.77835 0.42714,-0.78814 0.42713,-0.79794 0.42714,-0.80772 0.42713,-0.81751 0.42714,-0.82731 0.42714,-0.83709 0.42713,-0.84689 0.42714,-0.85667 0.42713,-0.86647 0.42714,-0.87626 0.42713,-0.88605 0.42714,-0.89583 0.42714,-0.90563 L 190,9 l 0.42714,-0.92521 0.42713,-0.93501 0.42714,-0.94479 0.42713,-0.95458 0.42714,-0.96437"
       id="path5558" />
    <path
       style="fill:none;stroke:#0000ff;stroke-width:5;stroke-miterlimit:4;stroke-dasharray:none"
       inkscape:connector-curvature="0"
       d="m -44.56989,17.392997 0.75269,0.525808 0.75269,1.059312 0.75268,1.561554 0.75269,2.017713 0.75269,2.414326 0.75269,2.739692 0.75269,2.9842 0.75269,3.140651 0.75268,3.204409 0.75269,3.173605 0.75269,3.049142 0.75269,2.834699 0.75269,2.5366 0.75268,2.163639 0.75269,1.726834 0.75269,1.239059 0.75269,0.714725 0.75269,0.169297 0.75269,-0.381128 0.75268,-0.920305 0.75269,-1.432324 0.75269,-1.902074 0.75269,-2.315687 0.75269,-2.660966 0.75268,-2.927715 L -25,39 l 0.75269,-3.196691 0.75269,-3.190982 0.75269,-3.091099 0.75269,-2.899998 0.75268,-2.623313 0.75269,-2.269209 0.75269,-1.84814 0.75269,-1.372534 0.75269,-0.856416 0.75268,-0.315029 0.75269,0.235654 0.75269,0.779385 0.75269,1.300117 0.75269,1.782481 0.75269,2.212238 0.75268,2.576712 0.75269,2.865141 0.75269,3.069022 0.75269,3.18233 0.75269,3.201725 0.75268,3.126631 0.75269,2.959265 0.75269,2.704572 0.75269,2.370065 0.75269,1.965611 0.75268,1.503151 0.75269,0.996329 0.75269,0.460109 0.75269,-0.0897 0.75269,-0.636845 0.75269,-1.165208 0.75268,-1.659182 0.75269,-2.10419 0.75269,-2.487101 0.75269,-2.796616 0.75269,-3.0236 0.75268,-3.161353 0.75269,-3.205814 0.75269,-3.155663 0.75269,-3.012387 0.75269,-2.780214 0.75269,-2.46599 0.75268,-2.078996 0.75269,-1.630642 0.75269,-1.134173 0.75269,-0.60423 0.75269,-0.05646 0.75268,0.492987 0.75269,1.027876 0.75269,1.532435 0.75269,1.991769 0.75269,2.392322 0.75269,2.722279 0.75268,2.971895 0.75269,3.133807 0.75269,3.203238 0.75269,3.17814 0.75269,3.059248 0.75268,2.850073 0.75269,2.556791 0.75269,2.188059 0.75269,1.754749 0.75269,1.269656 0.75269,0.747097 0.75268,0.202486 0.75269,-0.348097 0.75269,-0.888408 0.75269,-1.402504 0.75269,-1.875209 0.75268,-2.292571 0.75269,-2.642283 0.75269,-2.91401 0.75269,-3.099751 0.75269,-3.194006 0.75269,-3.194006 0.75268,-3.099751 0.75269,-2.914011 0.75269,-2.642284 0.75269,-2.29257 0.75269,-1.875209 0.75268,-1.402504 0.75269,-0.888408 0.75269,-0.348098 0.75269,0.202487 0.75269,0.747097 0.75269,1.269656 0.75268,1.754749 0.75269,2.188059 0.75269,2.556791 0.75269,2.850074 0.75269,3.059248 0.75268,3.17814 0.75269,3.203238 0.75269,3.133808 0.75269,2.971893 0.75269,2.722279 0.75269,2.392322 0.75268,1.991769 0.75269,1.532435 0.75269,1.027876 0.75269,0.492986 0.75269,-0.05646 0.75268,-0.60423 0.75269,-1.134173 0.75269,-1.630643 0.75269,-2.078996 0.75269,-2.465989 0.75269,-2.780213 0.75268,-3.012387 0.75269,-3.155663 0.75269,-3.205813 0.75269,-3.161354 0.75269,-3.0236 0.75268,-2.796617 0.75269,-2.487101 0.75269,-2.10419 0.75269,-1.659182 0.75269,-1.165208 0.75268,-0.636845 0.75269,-0.0897 0.75269,0.460108 0.75269,0.99633 0.75269,1.503151 0.75269,1.965611 0.75268,2.370064 0.75269,2.704573 0.75269,2.959266 0.75269,3.126631 0.75269,3.201725 0.75268,3.18233 0.75269,3.069022 0.75269,2.86514 0.75269,2.576712 0.75269,2.212238 0.75269,1.78248 0.75268,1.300117 0.75269,0.779386 0.75269,0.235654 0.75269,-0.315029 0.75269,-0.856417 0.75268,-1.372533 0.75269,-1.84814 0.75269,-2.26921 0.75269,-2.623312 0.75269,-2.899997 0.75269,-3.091099 0.75268,-3.190981 0.75269,-3.196692 0.75269,-3.108063 0.75269,-2.927716 0.75269,-2.660966 0.75268,-2.315688 0.75269,-1.902073 0.75269,-1.432324 0.75269,-0.920305 0.75269,-0.381129 0.75269,0.169298 0.75268,0.714725 0.75269,1.239059 0.75269,1.726833 0.752688,2.16364 0.752688,2.5366 0.75269,2.8347 0.75269,3.049143 0.75269,3.173604 0.752684,3.20441 0.75269,3.14065 0.75269,2.9842 0.75269,2.739691 0.75269,2.414325 0.75268,2.017714 0.75269,1.561554 0.75269,1.059311"
       id="path5660" />
  </g>
</svg>
