<?xml version="1.0" encoding="UTF-8" standalone="no"?>
<!-- Created with Inkscape (http://www.inkscape.org/) -->

<svg
   xmlns:dc="http://purl.org/dc/elements/1.1/"
   xmlns:cc="http://creativecommons.org/ns#"
   xmlns:rdf="http://www.w3.org/1999/02/22-rdf-syntax-ns#"
   xmlns:svg="http://www.w3.org/2000/svg"
   xmlns="http://www.w3.org/2000/svg"
   xmlns:sodipodi="http://sodipodi.sourceforge.net/DTD/sodipodi-0.dtd"
   xmlns:inkscape="http://www.inkscape.org/namespaces/inkscape"
   width="16"
   height="16"
   id="svg2985"
   version="1.1"
   inkscape:version="0.48.3.1 r9886"
   sodipodi:docname="graphiticon.svg"
   inkscape:export-filename="/home/albert/programming/graphit/images/graphiticon.png"
   inkscape:export-xdpi="90"
   inkscape:export-ydpi="90">
  <defs
     id="defs2987">
    <marker
       inkscape:stockid="Arrow2Send"
       orient="auto"
       refY="0"
       refX="0"
       id="Arrow2Send"
       style="overflow:visible">
      <path
         id="path3802"
         style="fill-rule:evenodd;stroke-width:0.625;stroke-linejoin:round"
         d="M 8.7185878,4.0337352 -2.2072895,0.01601326 8.7185884,-4.0017078 c -1.7454984,2.3720609 -1.7354408,5.6174519 -6e-7,8.035443 z"
         transform="matrix(-0.3,0,0,-0.3,0.69,0)"
         inkscape:connector-curvature="0" />
    </marker>
    <marker
       inkscape:stockid="Arrow2Mend"
       orient="auto"
       refY="0"
       refX="0"
       id="Arrow2Mend"
       style="overflow:visible">
      <path
         id="path3796"
         style="fill-rule:evenodd;stroke-width:0.625;stroke-linejoin:round"
         d="M 8.7185878,4.0337352 -2.2072895,0.01601326 8.7185884,-4.0017078 c -1.7454984,2.3720609 -1.7354408,5.6174519 -6e-7,8.035443 z"
         transform="scale(-0.6,-0.6)"
         inkscape:connector-curvature="0" />
    </marker>
    <marker
       inkscape:stockid="Arrow2Lend"
       orient="auto"
       refY="0"
       refX="0"
       id="Arrow2Lend"
       style="overflow:visible">
      <path
         id="path3790"
         style="fill-rule:evenodd;stroke-width:0.625;stroke-linejoin:round"
         d="M 8.7185878,4.0337352 -2.2072895,0.01601326 8.7185884,-4.0017078 c -1.7454984,2.3720609 -1.7354408,5.6174519 -6e-7,8.035443 z"
         transform="matrix(-1.1,0,0,-1.1,-1.1,0)"
         inkscape:connector-curvature="0" />
    </marker>
    <marker
       inkscape:stockid="Arrow2Send"
       orient="auto"
       refY="0"
       refX="0"
       id="Arrow2Send-9"
       style="overflow:visible">
      <path
         inkscape:connector-curvature="0"
         id="path3802-2"
         style="fill-rule:evenodd;stroke-width:0.625;stroke-linejoin:round"
         d="M 8.7185878,4.0337352 -2.2072895,0.01601326 8.7185884,-4.0017078 c -1.7454984,2.3720609 -1.7354408,5.6174519 -6e-7,8.035443 z"
         transform="matrix(-0.3,0,0,-0.3,0.69,0)" />
    </marker>
  </defs>
  <sodipodi:namedview
     id="base"
     pagecolor="#c0c0c0"
     bordercolor="#666666"
     borderopacity="1.0"
     inkscape:pageopacity="0"
     inkscape:pageshadow="2"
     inkscape:zoom="32"
     inkscape:cx="12.01386"
     inkscape:cy="9.0492642"
     inkscape:current-layer="layer1"
     showgrid="true"
     inkscape:document-units="px"
     inkscape:grid-bbox="true"
     inkscape:window-width="1600"
     inkscape:window-height="841"
     inkscape:window-x="0"
     inkscape:window-y="27"
     inkscape:window-maximized="1">
    <inkscape:grid
       type="xygrid"
       id="grid2995"
       empspacing="5"
       visible="true"
       enabled="true"
       snapvisiblegridlinesonly="true"
       dotted="false"
       spacingx="0.5px"
       spacingy="0.5px" />
  </sodipodi:namedview>
  <metadata
     id="metadata2990">
    <rdf:RDF>
      <cc:Work
         rdf:about="">
        <dc:format>image/svg+xml</dc:format>
        <dc:type
           rdf:resource="http://purl.org/dc/dcmitype/StillImage" />
        <dc:title />
      </cc:Work>
    </rdf:RDF>
  </metadata>
  <g
     id="layer1"
     inkscape:label="Layer 1"
     inkscape:groupmode="layer"
     transform="translate(0,-48)">
    <path
       style="color:#000000;fill:#ffffff;fill-opacity:1;fill-rule:nonzero;stroke:none;stroke-width:0;marker:none;visibility:visible;display:inline;overflow:visible;enable-background:accumulate"
       d="m 6.3167486,48.965828 5.0695874,0 c 2.106415,0 3.802192,1.695779 3.802192,3.802193 l 0,5.069588 c 0,2.106415 0,1.267398 0,3.802193 l -8.8717794,0 c -2.1064149,0 -2.5347948,0 -3.8021923,0 l 0,-12.673974 c 1.2673975,0 1.6957774,0 3.8021923,0 z"
       id="rect5755"
       inkscape:connector-curvature="0"
       sodipodi:nodetypes="sssscsccs" />
    <path
       style="fill:none;stroke:#000000;stroke-width:1;stroke-linecap:butt;stroke-linejoin:miter;stroke-miterlimit:4;stroke-opacity:1;stroke-dasharray:none;marker-end:url(#Arrow2Send)"
       d="m 1,62.5 13.5,0"
       id="path2993"
       inkscape:connector-curvature="0"
       sodipodi:nodetypes="cc" />
    <path
       style="fill:none;stroke:#000000;stroke-width:1;stroke-linecap:butt;stroke-linejoin:miter;stroke-miterlimit:4;stroke-opacity:1;stroke-dasharray:none;marker-end:url(#Arrow2Send)"
       d="m 2.5,64 0,-14.5"
       id="path2993-0"
       inkscape:connector-curvature="0"
       sodipodi:nodetypes="cc" />
    <path
       style="fill:none;stroke:#0000ff;stroke-width:0.50695896;stroke-miterlimit:4;stroke-dasharray:none"
       inkscape:connector-curvature="0"
       d="m 27.136456,48.788869 0.108271,0.246931 0.108267,0.244447 0.108272,0.241967 0.108272,0.239485 0.108267,0.237006 0.108272,0.234521 0.108271,0.23204 0.108271,0.229558 0.108268,0.227076 0.108271,0.224595 0.108268,0.222113 0.108272,0.219633 0.108267,0.217148 0.108271,0.214669 0.108271,0.212185 0.108272,0.209707 0.108272,0.207222 0.108267,0.20474 0.108272,0.202262 0.108267,0.199777 0.108271,0.197295 0.108268,0.194815 0.108272,0.192332 0.108271,0.189851 0.108267,0.18737 0.108272,0.184888 0.108271,0.182406 0.108272,0.179922 0.108268,0.177444 0.108271,0.174961 0.108271,0.172478 0.108268,0.169999 0.108271,0.167513 0.108268,0.165036 0.108272,0.162552 0.108271,0.160069 0.108271,0.157591 0.108267,0.155107 0.108272,0.152624 0.108271,0.150144 0.108268,0.147662 0.108272,0.14518 0.108267,0.142699 0.108271,0.140215 0.108272,0.137735 0.108267,0.135254 0.108274,0.13277 0.108267,0.130292 0.108276,0.127806 0.108266,0.125328 0.108266,0.122844 0.108276,0.120365 0.108267,0.11788 0.108275,0.1154 0.108267,0.112917 0.108266,0.110436 0.108276,0.107954 0.108266,0.105473 0.108267,0.102991 0.108276,0.10051 0.108276,0.09803 0.108266,0.09555 0.108266,0.09307 0.108266,0.09059 0.108276,0.0881 0.108267,0.08561 0.108276,0.08314 0.108266,0.08066 0.108276,0.07817 0.108266,0.07569 0.108266,0.07321 0.108276,0.07073 0.108267,0.06825 0.108266,0.06577 0.108276,0.06329 0.108266,0.06081 0.108276,0.05832 0.108267,0.05584 0.108275,0.05336 0.108267,0.05087 0.108266,0.0484 0.108276,0.04591 0.108266,0.04343 0.108276,0.04095 0.108267,0.03847 0.108266,0.03598 0.108266,0.03351 0.108276,0.03102 0.108266,0.02854 0.108276,0.02606 0.108267,0.02357 0.108276,0.02109 0.108266,0.01861 0.108266,0.01612 0.108276,0.01364 0.108266,0.01118 0.108267,0.0087 0.108276,0.0062 0.108276,0.0037 0.108266,0.0013 0.108266,-0.0013 0.108276,-0.0037 0.108267,-0.0062 0.108266,-0.0087 0.108276,-0.01118 0.108266,-0.01364 0.108276,-0.01612 0.108266,-0.01861 0.108267,-0.02109 0.108276,-0.02357 0.108266,-0.02606 0.108276,-0.02854 0.108266,-0.03102 0.108266,-0.03351 0.108276,-0.03598 0.108267,-0.03847 0.108266,-0.04095 0.108276,-0.04343 0.108266,-0.04591 0.108276,-0.0484 0.108266,-0.05087 0.108276,-0.05336 0.108267,-0.05584 0.108266,-0.05832 0.108276,-0.06081 0.108266,-0.06329 0.108267,-0.06577 0.108276,-0.06825 0.108266,-0.07073 0.108276,-0.07321 0.108266,-0.07569 0.108276,-0.07817 0.108266,-0.08066 0.108267,-0.08314 0.108276,-0.08561 0.108266,-0.0881 0.108266,-0.09059 0.108276,-0.09307 0.108266,-0.09555 0.108276,-0.09803 0.108267,-0.10051 0.108266,-0.102991 0.108276,-0.105473 0.108266,-0.107954 0.108276,-0.110436 0.108266,-0.112917 0.108267,-0.1154 0.108276,-0.11788 0.108266,-0.120365 0.108266,-0.122844 0.108276,-0.125328 0.108267,-0.127806 0.108276,-0.130292 0.108266,-0.13277 0.108276,-0.135254 0.108266,-0.137735 0.108266,-0.140215 0.108276,-0.142699 0.108267,-0.14518 0.108266,-0.147662 0.108276,-0.150144 0.108266,-0.152624 0.108276,-0.155107 0.108266,-0.157591 0.108276,-0.160069 0.108267,-0.162552 0.108266,-0.165036 0.108276,-0.167513 0.108266,-0.169999 0.108276,-0.172478 0.108266,-0.174961 0.108267,-0.177444 0.108276,-0.179922 0.108266,-0.182406 0.108266,-0.184888 0.108276,-0.18737 0.108276,-0.189851 0.108267,-0.192332 0.108266,-0.194815 0.108266,-0.197295 0.108276,-0.199777 0.108266,-0.202262 0.108267,-0.20474 0.108276,-0.207222 0.108276,-0.209707 0.108266,-0.212185 0.108266,-0.214669 0.108276,-0.217148 0.108266,-0.219633 0.108267,-0.222113 0.108276,-0.224595 0.108266,-0.227076 0.108276,-0.229558 0.108266,-0.23204 0.108276,-0.234521 0.108266,-0.237006 0.108267,-0.239485 0.108266,-0.241967 0.108276,-0.244447"
       id="path5558" />
    <path
       style="fill:none;stroke:#0000ff;stroke-width:1.5;stroke-miterlimit:4;stroke-dasharray:none"
       inkscape:connector-curvature="0"
       d="m -11.31779,52.360678 0.190792,0.133282 0.190791,0.268513 0.190789,0.395823 0.190792,0.511448 0.19079,0.611983 0.190792,0.694455 0.1907921,0.756433 0.1907908,0.796091 0.190789,0.812252 0.1907918,0.804444 0.1907909,0.772895 0.1907918,0.718538 0.1907918,0.642975 0.1907889,0.548439 0.1907909,0.437716 0.1907918,0.314077 0.1907919,0.181167 0.1907908,0.04291 0.1907919,-0.09661 0.1907889,-0.233279 0.1907909,-0.363065 0.1907918,-0.482136 0.1907918,-0.586979 0.1907909,-0.674501 0.1907889,-0.742115 0.1907918,-0.787831 0.1907919,-0.810294 0.1907908,-0.80885 0.1907919,-0.783529 0.1907908,-0.73509 0.1907889,-0.664956 0.1907919,-0.575198 0.1907908,-0.468465 0.1907919,-0.34791 0.1907918,-0.217083 0.1907889,-0.07986 0.1907909,0.05973 0.1907918,0.197558 0.1907909,0.329552 0.1907918,0.451823 0.1907918,0.560757 0.190789,0.653144 0.1907908,0.726254 0.1907919,0.777934 0.1907918,0.806655 0.1907908,0.811572 0.190789,0.792536 0.1907918,0.750113 0.1907909,0.685554 0.1907918,0.600763 0.1907918,0.498241 0.1907889,0.381018 0.1907909,0.25255 0.1907918,0.116627 0.19079187,-0.02274 0.19079086,-0.161426 0.19079183,-0.295357 0.19078893,-0.420568 0.1907909,-0.533369 0.1907918,-0.63043 0.1907918,-0.708884 0.1907909,-0.766421 0.1907889,-0.801338 0.1907918,-0.812607 0.19079091,-0.799896 0.1907918,-0.763579 0.1907909,-0.704726 0.1907918,-0.625079 0.190789,-0.526982 0.1907918,-0.413335 0.1907909,-0.287489 0.1907918,-0.15316 0.1907918,-0.01431 0.190788,0.124962 0.1907918,0.260546 0.1907918,0.38844 0.1907909,0.504872 0.1907918,0.606406 0.1907919,0.690041 0.1907889,0.753314 0.1907908,0.794356 0.1907919,0.811955 0.1907918,0.805593 0.1907909,0.775457 0.1907889,0.722434 0.1907918,0.648094 0.1907909,0.554628 0.1907918,0.444793 0.1907918,0.321833 0.1907909,0.189373 0.1907889,0.05132 0.1907919,-0.08824 0.1907908,-0.225193 0.1907919,-0.355506 0.1907908,-0.475327 0.1907899,-0.58112 0.1907909,-0.669764 0.1907918,-0.738643 0.1907909,-0.785723 0.1907918,-0.809614 0.1907918,-0.809615 0.190789,-0.785724 0.1907908,-0.738642 0.1907919,-0.669764 0.1907907,-0.58112 0.190792,-0.475327 0.190789,-0.355506 0.190792,-0.225193 0.190791,-0.08824 0.190791,0.05132 0.190792,0.189374 0.1907909,0.321832 0.190789,0.444792 0.190792,0.554629 0.190791,0.648094 0.190792,0.722435 0.190791,0.775456 0.190787,0.805593 0.190792,0.811956 0.190791,0.794355 0.190791,0.753314 0.190796,0.690042 0.19079,0.606405 0.190788,0.504872 0.190791,0.388441 0.190791,0.260545 0.190792,0.124962 0.190791,-0.01431 0.190792,-0.15316 0.190791,-0.287489 0.19079,-0.413335 0.190792,-0.526983 0.190791,-0.625078 0.190792,-0.704726 0.190787,-0.763579 0.190791,-0.799895 0.190792,-0.812608 0.19079,-0.801338 0.190796,-0.766421 0.190787,-0.708885 0.190791,-0.630429 0.190792,-0.533369 0.190791,-0.420568 0.190791,-0.295357 0.190791,-0.161427 0.190791,-0.02274 0.190792,0.116628 0.190791,0.25255 0.190791,0.381018 0.190792,0.498242 0.190787,0.600762 0.190791,0.685554 0.190791,0.750113 0.190791,0.792537 0.190792,0.811571 0.190791,0.806655 0.190791,0.777934 0.190792,0.726254 0.19079,0.653144 0.190792,0.560757 0.190791,0.451822 0.190791,0.329553 0.190792,0.197558 0.190791,0.05973 0.190792,-0.07986 0.19079,-0.217084 0.190787,-0.347908 0.190792,-0.468466 0.190791,-0.575198 0.190791,-0.664956 0.190792,-0.73509 0.190791,-0.783529 0.190791,-0.808849 0.190791,-0.810295 0.190791,-0.787831 0.190792,-0.742115 0.190791,-0.674501 0.190792,-0.586979 0.190791,-0.482137 0.19079,-0.363064 0.190792,-0.233278 0.190791,-0.09661 0.190792,0.04291 0.190787,0.181167 0.190791,0.314077 0.190791,0.437716 0.190792,0.548439 0.19079,0.642975 0.190792,0.718539 0.190791,0.772895 0.190791,0.804443 0.190792,0.812253 0.190791,0.79609 0.190791,0.756433 0.190791,0.694456 0.190791,0.611982 0.190792,0.511449 0.190791,0.395821 0.190792,0.268514"
       id="path5660" />
  </g>
</svg>
